<mxfile host="app.diagrams.net" modified="2023-07-25T17:46:15.943Z" agent="Mozilla/5.0 (Windows NT 10.0; Win64; x64) AppleWebKit/537.36 (KHTML, like Gecko) Chrome/114.0.0.0 Safari/537.36" etag="MaRuQCP03yXD_OcQzCqr" version="21.6.5" type="device">
  <diagram name="PÃ¡gina-1" id="5T6sZ5ecjL1OTUMXHCH_">
    <mxGraphModel dx="1050" dy="590" grid="1" gridSize="10" guides="1" tooltips="1" connect="1" arrows="1" fold="1" page="1" pageScale="1" pageWidth="827" pageHeight="1169" math="0" shadow="0">
      <root>
        <mxCell id="0" />
        <mxCell id="1" parent="0" />
        <mxCell id="w3V95xOEIkDzIVadKe2P-5" style="edgeStyle=orthogonalEdgeStyle;rounded=0;orthogonalLoop=1;jettySize=auto;html=1;entryX=0.5;entryY=0;entryDx=0;entryDy=0;endArrow=none;endFill=0;" edge="1" parent="1" source="w3V95xOEIkDzIVadKe2P-1" target="w3V95xOEIkDzIVadKe2P-4">
          <mxGeometry relative="1" as="geometry" />
        </mxCell>
        <mxCell id="w3V95xOEIkDzIVadKe2P-12" style="edgeStyle=orthogonalEdgeStyle;rounded=0;orthogonalLoop=1;jettySize=auto;html=1;entryX=0.5;entryY=1;entryDx=0;entryDy=0;endArrow=none;endFill=0;" edge="1" parent="1" source="w3V95xOEIkDzIVadKe2P-1" target="w3V95xOEIkDzIVadKe2P-11">
          <mxGeometry relative="1" as="geometry" />
        </mxCell>
        <mxCell id="w3V95xOEIkDzIVadKe2P-1" value="Pessoa" style="rounded=0;whiteSpace=wrap;html=1;" vertex="1" parent="1">
          <mxGeometry x="380" y="170" width="120" height="60" as="geometry" />
        </mxCell>
        <mxCell id="w3V95xOEIkDzIVadKe2P-2" value="Telefone" style="rounded=0;whiteSpace=wrap;html=1;" vertex="1" parent="1">
          <mxGeometry x="270" y="430" width="120" height="60" as="geometry" />
        </mxCell>
        <mxCell id="w3V95xOEIkDzIVadKe2P-3" value="Email" style="rounded=0;whiteSpace=wrap;html=1;" vertex="1" parent="1">
          <mxGeometry x="500" y="430" width="120" height="60" as="geometry" />
        </mxCell>
        <mxCell id="w3V95xOEIkDzIVadKe2P-6" style="edgeStyle=orthogonalEdgeStyle;rounded=0;orthogonalLoop=1;jettySize=auto;html=1;entryX=0.5;entryY=0;entryDx=0;entryDy=0;endArrow=none;endFill=0;" edge="1" parent="1" source="w3V95xOEIkDzIVadKe2P-4" target="w3V95xOEIkDzIVadKe2P-3">
          <mxGeometry relative="1" as="geometry" />
        </mxCell>
        <mxCell id="w3V95xOEIkDzIVadKe2P-7" style="edgeStyle=orthogonalEdgeStyle;rounded=0;orthogonalLoop=1;jettySize=auto;html=1;entryX=0.5;entryY=0;entryDx=0;entryDy=0;endArrow=none;endFill=0;" edge="1" parent="1" source="w3V95xOEIkDzIVadKe2P-4" target="w3V95xOEIkDzIVadKe2P-2">
          <mxGeometry relative="1" as="geometry">
            <mxPoint x="340" y="410" as="targetPoint" />
          </mxGeometry>
        </mxCell>
        <mxCell id="w3V95xOEIkDzIVadKe2P-4" value="Possui" style="rhombus;whiteSpace=wrap;html=1;" vertex="1" parent="1">
          <mxGeometry x="400" y="280" width="80" height="80" as="geometry" />
        </mxCell>
        <mxCell id="w3V95xOEIkDzIVadKe2P-8" value="N" style="text;html=1;align=center;verticalAlign=middle;resizable=0;points=[];autosize=1;strokeColor=none;fillColor=none;" vertex="1" parent="1">
          <mxGeometry x="525" y="398" width="30" height="30" as="geometry" />
        </mxCell>
        <mxCell id="w3V95xOEIkDzIVadKe2P-9" value="N" style="text;html=1;align=center;verticalAlign=middle;resizable=0;points=[];autosize=1;strokeColor=none;fillColor=none;" vertex="1" parent="1">
          <mxGeometry x="330" y="400" width="30" height="30" as="geometry" />
        </mxCell>
        <mxCell id="w3V95xOEIkDzIVadKe2P-10" value="1" style="text;html=1;align=center;verticalAlign=middle;resizable=0;points=[];autosize=1;strokeColor=none;fillColor=none;" vertex="1" parent="1">
          <mxGeometry x="440" y="230" width="30" height="30" as="geometry" />
        </mxCell>
        <mxCell id="w3V95xOEIkDzIVadKe2P-11" value="CNH" style="ellipse;whiteSpace=wrap;html=1;" vertex="1" parent="1">
          <mxGeometry x="525" y="80" width="50" height="40" as="geometry" />
        </mxCell>
      </root>
    </mxGraphModel>
  </diagram>
</mxfile>
